<svg width="40" height="40" fill="none" xmlns="http://www.w3.org/2000/svg"><g clip-path="url(#a)" fill="#688800"><path d="M38.416 8.825 20.255.058a.586.586 0 0 0-.51 0L1.584 8.825a.586.586 0 0 0-.332.528v21.293c0 .225.13.43.332.528l18.161 8.767a.586.586 0 0 0 .51 0l18.161-8.767a.586.586 0 0 0 .331-.528V9.353a.586.586 0 0 0-.33-.528ZM20 1.236l16.814 8.117-4.874 2.353a.589.589 0 0 0-.1-.063L15.142 3.582 20 1.236Zm-6.182 3.008 16.79 8.106-3.44 1.66-16.782-8.102 3.432-1.664ZM31 13.461v6.136l-3.212 1.551v-6.136L31 13.46Zm6.576 16.817-16.99 8.202V18.489l4.053-1.957a.586.586 0 0 0-.51-1.055l-4.13 1.993-1.624-.784a.586.586 0 1 0-.51 1.055l1.549.747V38.48l-16.99-8.202V10.287l12.938 6.245a.583.583 0 0 0 .782-.273.586.586 0 0 0-.273-.782L3.186 9.353l5.82-2.81 17.602 8.497.008.01v7.032a.586.586 0 0 0 .84.527l4.385-2.116a.586.586 0 0 0 .33-.528v-7.07l5.405-2.608v19.991Z"/><path d="M7.26 28.006 4.595 26.72a.586.586 0 1 0-.51 1.055l2.665 1.287a.583.583 0 0 0 .783-.273.586.586 0 0 0-.273-.783ZM9.713 26.41 4.6 23.94a.586.586 0 1 0-.51 1.056l5.115 2.47a.584.584 0 0 0 .782-.274.586.586 0 0 0-.273-.782Z"/></g><defs><clipPath id="a"><path fill="#fff" d="M0 0h40v40H0z"/></clipPath></defs></svg>