<svg viewBox="0 0 32 32" xmlns="http://www.w3.org/2000/svg">
<path d="M4 24.7002C4 24.4241 4.22386 24.2002 4.5 24.2002H27.5C27.7761 24.2002 28 24.4241 28 24.7002C28 24.9763 27.7761 25.2002 27.5 25.2002H4.5C4.22386 25.2002 4 24.9763 4 24.7002Z"/>
<path d="M4 13.1001C4 12.824 4.22386 12.6001 4.5 12.6001H27.5C27.7761 12.6001 28 12.824 28 13.1001C28 13.3762 27.7761 13.6001 27.5 13.6001H4.5C4.22386 13.6001 4 13.3762 4 13.1001Z"/>
<path d="M4 18.8999C4 18.6238 4.22386 18.3999 4.5 18.3999H27.5C27.7761 18.3999 28 18.6238 28 18.8999C28 19.176 27.7761 19.3999 27.5 19.3999H4.5C4.22386 19.3999 4 19.176 4 18.8999Z"/>
<path d="M4 7.2998C4 7.02366 4.22386 6.7998 4.5 6.7998H27.5C27.7761 6.7998 28 7.02366 28 7.2998C28 7.57595 27.7761 7.7998 27.5 7.7998H4.5C4.22386 7.7998 4 7.57595 4 7.2998Z"/>
</svg>
