<svg viewBox="0 0 38 38" xmlns="http://www.w3.org/2000/svg">
<path fill-rule="evenodd" clip-rule="evenodd" d="M11.4416 0.776992C13.3966 0.686992 14.02 0.666992 19 0.666992C23.98 0.666992 24.6033 0.688659 26.5566 0.776992C28.51 0.865325 29.8433 1.17699 31.01 1.62866C32.2316 2.09033 33.34 2.81199 34.2566 3.74533C35.19 4.66032 35.91 5.76699 36.37 6.99033C36.8233 8.15699 37.1333 9.49033 37.2233 11.4403C37.3133 13.3987 37.3333 14.022 37.3333 19.0003C37.3333 23.9803 37.3116 24.6037 37.2233 26.5587C37.135 28.5087 36.8233 29.842 36.37 31.0087C35.9099 32.2321 35.1888 33.3407 34.2566 34.257C33.34 35.1903 32.2316 35.9103 31.01 36.3703C29.8433 36.8237 28.51 37.1337 26.56 37.2237C24.6033 37.3137 23.98 37.3337 19 37.3337C14.02 37.3337 13.3966 37.312 11.4416 37.2237C9.49163 37.1353 8.15829 36.8237 6.99163 36.3703C5.76816 35.9103 4.65966 35.1891 3.74329 34.257C2.81059 33.3414 2.08882 32.2335 1.62829 31.0103C1.17663 29.8437 0.866626 28.5103 0.776626 26.5603C0.686626 24.602 0.666626 23.9787 0.666626 19.0003C0.666626 14.0203 0.688293 13.397 0.776626 11.4437C0.864959 9.49032 1.17663 8.15699 1.62829 6.99033C2.0895 5.76713 2.81182 4.65918 3.74496 3.74366C4.66003 2.81116 5.76741 2.0894 6.98996 1.62866C8.15663 1.17699 9.48996 0.866992 11.44 0.776992H11.4416ZM26.4083 4.07699C24.475 3.98866 23.895 3.97033 19 3.97033C14.105 3.97033 13.525 3.98866 11.5916 4.07699C9.80329 4.15866 8.83329 4.45699 8.18663 4.70866C7.33163 5.04199 6.71996 5.43699 6.07829 6.07866C5.47003 6.67041 5.00193 7.3908 4.70829 8.18699C4.45663 8.83366 4.15829 9.80366 4.07663 11.592C3.98829 13.5253 3.96996 14.1053 3.96996 19.0003C3.96996 23.8953 3.98829 24.4753 4.07663 26.4087C4.15829 28.197 4.45663 29.167 4.70829 29.8137C5.00163 30.6087 5.46996 31.3303 6.07829 31.922C6.66996 32.5303 7.39163 32.9987 8.18663 33.292C8.83329 33.5437 9.80329 33.842 11.5916 33.9237C13.525 34.012 14.1033 34.0303 19 34.0303C23.8966 34.0303 24.475 34.012 26.4083 33.9237C28.1966 33.842 29.1666 33.5437 29.8133 33.292C30.6683 32.9587 31.28 32.5637 31.9216 31.922C32.53 31.3303 32.9983 30.6087 33.2916 29.8137C33.5433 29.167 33.8416 28.197 33.9233 26.4087C34.0116 24.4753 34.03 23.8953 34.03 19.0003C34.03 14.1053 34.0116 13.5253 33.9233 11.592C33.8416 9.80366 33.5433 8.83366 33.2916 8.18699C32.9583 7.33199 32.5633 6.72033 31.9216 6.07866C31.3298 5.47044 30.6095 5.00234 29.8133 4.70866C29.1666 4.45699 28.1966 4.15866 26.4083 4.07699V4.07699ZM16.6583 24.652C17.9661 25.1964 19.4223 25.2698 20.7782 24.8599C22.1341 24.4499 23.3056 23.5819 24.0926 22.4041C24.8797 21.2263 25.2334 19.8118 25.0934 18.4022C24.9534 16.9926 24.3283 15.6753 23.325 14.6753C22.6854 14.0361 21.912 13.5467 21.0605 13.2422C20.209 12.9378 19.3007 12.8259 18.4008 12.9147C17.5009 13.0034 16.6319 13.2906 15.8563 13.7555C15.0807 14.2205 14.4179 14.8516 13.9155 15.6034C13.4131 16.3553 13.0836 17.2091 12.9508 18.1036C12.818 18.998 12.8852 19.9108 13.1475 20.7762C13.4098 21.6416 13.8608 22.438 14.4678 23.1082C15.0749 23.7784 15.823 24.3056 16.6583 24.652ZM12.3366 12.337C13.2117 11.4619 14.2505 10.7678 15.3938 10.2943C16.5371 9.82069 17.7625 9.57695 19 9.57695C20.2375 9.57695 21.4628 9.82069 22.6061 10.2943C23.7494 10.7678 24.7882 11.4619 25.6633 12.337C26.5383 13.212 27.2325 14.2509 27.706 15.3942C28.1796 16.5375 28.4233 17.7628 28.4233 19.0003C28.4233 20.2378 28.1796 21.4632 27.706 22.6065C27.2325 23.7498 26.5383 24.7886 25.6633 25.6637C23.8961 27.4309 21.4992 28.4237 19 28.4237C16.5007 28.4237 14.1039 27.4309 12.3366 25.6637C10.5694 23.8964 9.57658 21.4996 9.57658 19.0003C9.57658 16.5011 10.5694 14.1042 12.3366 12.337V12.337ZM30.5133 10.9803C30.7301 10.7758 30.9037 10.5298 31.0238 10.2569C31.1439 9.9841 31.208 9.68994 31.2123 9.39187C31.2167 9.09381 31.1612 8.7979 31.0491 8.52167C30.937 8.24545 30.7707 7.99451 30.5599 7.78372C30.3491 7.57294 30.0982 7.40659 29.8219 7.29452C29.5457 7.18245 29.2498 7.12695 28.9517 7.1313C28.6537 7.13564 28.3595 7.19975 28.0867 7.31982C27.8138 7.43989 27.5678 7.61348 27.3633 7.83032C26.9655 8.25204 26.7477 8.81219 26.7561 9.39187C26.7646 9.97156 26.9986 10.5251 27.4086 10.9351C27.8185 11.345 28.3721 11.579 28.9517 11.5875C29.5314 11.5959 30.0916 11.3781 30.5133 10.9803V10.9803Z"/>
</svg>
