<svg viewBox="0 0 200 25" fill="none" xmlns="http://www.w3.org/2000/svg">
<path d="M7.54152 14.083C7.54152 14.083 12.0173 14.083 12.0173 18.9031C12.0173 23.7232 7.54152 23.7232 7.54152 23.7232H1V14.083M7.54152 14.083C7.54152 14.083 10.2958 13.0502 10.2958 8.91869C10.2958 4.7872 5.13149 5.13149 5.13149 5.13149H1V14.083M7.54152 14.083H1M62.2837 4.09862V23.7232H71.9239M85.6955 24.4118L95.3356 5.13149L103.943 24.4118M88.1055 1L102.221 3.06574M121.157 24.7561V5.47578L136.651 22.0017V4.09862M171.424 6.85294C171.424 6.85294 168.451 4.64042 165.571 4.44291C159.968 4.05863 155.242 8.46648 155.242 14.083C155.242 19.6996 159.955 23.4767 165.571 23.3789C168.342 23.3306 171.424 22.0017 171.424 22.0017M200 23.7232H189.671V13.3945M199.311 5.13149H189.671V13.3945M197.59 13.3945H189.671M27.5104 24.4118L30.3877 18.2145M44.7249 24.4118L42.069 18.2145M30.3877 18.2145L36.4619 5.13149L42.069 18.2145M30.3877 18.2145H42.069" stroke-width="2"/>
</svg>
