<svg viewBox="0 0 34 20" xmlns="http://www.w3.org/2000/svg">
<path d="M32.965 1.42536C33.1984 0.650365 32.965 0.0820312 31.8617 0.0820312H28.2067C27.2767 0.0820312 26.8517 0.573699 26.6184 1.1137C26.6184 1.1137 24.76 5.64536 22.1267 8.5837C21.2767 9.4387 20.8884 9.7087 20.425 9.7087C20.1934 9.7087 19.8567 9.4387 19.8567 8.6637V1.42536C19.8567 0.495365 19.5884 0.0820312 18.8134 0.0820312H13.07C12.49 0.0820312 12.14 0.512032 12.14 0.922031C12.14 1.80203 13.4567 2.00536 13.5917 4.48536V9.86536C13.5917 11.0437 13.38 11.2587 12.9134 11.2587C11.675 11.2587 8.66171 6.71036 6.87337 1.5037C6.52504 0.492031 6.17337 0.0836986 5.24004 0.0836986H1.58671C0.541708 0.0836986 0.333374 0.575365 0.333374 1.11537C0.333374 2.08537 1.57171 6.88536 6.10171 13.2337C9.12171 17.5687 13.3734 19.9187 17.2467 19.9187C19.5684 19.9187 19.855 19.397 19.855 18.497V15.2204C19.855 14.177 20.0767 13.967 20.8117 13.967C21.3517 13.967 22.2817 14.2404 24.45 16.3287C26.9267 18.8054 27.3367 19.917 28.7284 19.917H32.3817C33.425 19.917 33.9467 19.3954 33.6467 18.3654C33.3184 17.3404 32.135 15.8487 30.565 14.0837C29.7117 13.077 28.4367 11.9937 28.0484 11.452C27.5067 10.7537 27.6634 10.4454 28.0484 9.82536C28.05 9.82703 32.5017 3.55703 32.965 1.42536V1.42536Z"/>
</svg>
