<svg width="40" height="40" viewBox="0 0 40 40" fill="none" xmlns="http://www.w3.org/2000/svg">
<g clip-path="url(#clip0_82_580)">
<path d="M20.1275 4.99707H20.35C22.405 5.00457 32.8175 5.07957 35.625 5.83457C36.4737 6.06499 37.2471 6.51413 37.8679 7.13709C38.4887 7.76006 38.9351 8.53503 39.1625 9.38457C39.415 10.3346 39.5925 11.5921 39.7125 12.8896L39.7375 13.1496L39.7925 13.7996L39.8125 14.0596C39.975 16.3446 39.995 18.4846 39.9975 18.9521V19.1396C39.995 19.6246 39.9725 21.9096 39.7925 24.2896L39.7725 24.5521L39.75 24.8121C39.625 26.2421 39.44 27.6621 39.1625 28.7071C38.9358 29.557 38.4896 30.3323 37.8687 30.9554C37.2478 31.5784 36.4741 32.0273 35.625 32.2571C32.725 33.0371 21.7025 33.0921 20.175 33.0946H19.82C19.0475 33.0946 15.8525 33.0796 12.5025 32.9646L12.0775 32.9496L11.86 32.9396L11.4325 32.9221L11.005 32.9046C8.23 32.7821 5.5875 32.5846 4.37 32.2546C3.52122 32.0251 2.74766 31.5765 2.12681 30.9539C1.50596 30.3313 1.05962 29.5565 0.8325 28.7071C0.555 27.6646 0.37 26.2421 0.245 24.8121L0.225 24.5496L0.205 24.2896C0.081619 22.5956 0.0132497 20.898 0 19.1996L0 18.8921C0.005 18.3546 0.025 16.4971 0.16 14.4471L0.1775 14.1896L0.185 14.0596L0.205 13.7996L0.26 13.1496L0.285 12.8896C0.405 11.5921 0.5825 10.3321 0.835 9.38457C1.06173 8.53469 1.50791 7.75935 2.12878 7.13628C2.74966 6.5132 3.52342 6.0643 4.3725 5.83457C5.59 5.50957 8.2325 5.30957 11.0075 5.18457L11.4325 5.16707L11.8625 5.15207L12.0775 5.14457L12.505 5.12707C14.8843 5.05051 17.2645 5.008 19.645 4.99957H20.1275V4.99707ZM16 13.0221V25.0671L26.3925 19.0471L16 13.0221Z" fill="white"/>
</g>
<defs>
<clipPath id="clip0_82_580">
<rect width="40" height="40" fill="white"/>
</clipPath>
</defs>
</svg>
