<svg viewBox="0 0 40 30" xmlns="http://www.w3.org/2000/svg">
<path d="M20.1275 0.99707H20.35C22.405 1.00457 32.8175 1.07957 35.625 1.83457C36.4737 2.06499 37.2471 2.51413 37.8679 3.13709C38.4887 3.76005 38.9351 4.53503 39.1625 5.38457C39.415 6.33457 39.5925 7.59207 39.7125 8.88957L39.7375 9.14957L39.7925 9.79957L39.8125 10.0596C39.975 12.3446 39.995 14.4846 39.9975 14.9521V15.1396C39.995 15.6246 39.9725 17.9096 39.7925 20.2896L39.7725 20.5521L39.75 20.8121C39.625 22.2421 39.44 23.6621 39.1625 24.7071C38.9358 25.557 38.4896 26.3323 37.8687 26.9554C37.2478 27.5784 36.4741 28.0273 35.625 28.2571C32.725 29.0371 21.7025 29.0921 20.175 29.0946H19.82C19.0475 29.0946 15.8525 29.0796 12.5025 28.9646L12.0775 28.9496L11.86 28.9396L11.4325 28.9221L11.005 28.9046C8.23 28.7821 5.5875 28.5846 4.37 28.2546C3.52122 28.0251 2.74766 27.5765 2.12681 26.9539C1.50596 26.3313 1.05962 25.5565 0.8325 24.7071C0.555 23.6646 0.37 22.2421 0.245 20.8121L0.225 20.5496L0.205 20.2896C0.081619 18.5956 0.0132497 16.898 0 15.1996L0 14.8921C0.005 14.3546 0.025 12.4971 0.16 10.4471L0.1775 10.1896L0.185 10.0596L0.205 9.79957L0.26 9.14957L0.285 8.88957C0.405 7.59207 0.5825 6.33207 0.835 5.38457C1.06173 4.53469 1.50791 3.75935 2.12878 3.13628C2.74966 2.5132 3.52342 2.0643 4.3725 1.83457C5.59 1.50957 8.2325 1.30957 11.0075 1.18457L11.4325 1.16707L11.8625 1.15207L12.0775 1.14457L12.505 1.12707C14.8843 1.05051 17.2645 1.008 19.645 0.99957H20.1275V0.99707ZM16 9.02207V21.0671L26.3925 15.0471L16 9.02207Z"/>
</svg>
