<svg xmlns="http://www.w3.org/2000/svg" xmlns:xlink="http://www.w3.org/1999/xlink"><defs><clipPath id="a"><path fill="#fff" d="M0 0h32v32H0z"/></clipPath><clipPath id="a"><path d="M0 0h24v24H0z"/></clipPath><clipPath id="a"><path fill="#fff" d="M0 0h32v32H0z"/></clipPath><clipPath id="a"><path d="M0 0h24v24H0z"/></clipPath><clipPath id="a"><path d="M0 0h24v24H0z"/></clipPath></defs><symbol id="basket" viewBox="0 0 32 30"><path d="M30.53 10.774h-7.177l-5.045-9.727a1.461 1.461 0 0 0-.861-.725A1.46 1.46 0 0 0 16 .648a1.468 1.468 0 0 0-2.308.399L8.374 11.3a1.461 1.461 0 0 0 .073 1.478H1.471a.534.534 0 0 1 0-1.066h5.344a.469.469 0 1 0 0-.938H1.47c-.811 0-1.471.66-1.471 1.47 0 .674.454 1.242 1.071 1.416l2.715 14.48c.175.931.99 1.608 1.938 1.608h20.552c.948 0 1.763-.677 1.938-1.608l2.715-14.48A1.473 1.473 0 0 0 32 12.245c0-.811-.66-1.47-1.47-1.47ZM16.756 1.251a.53.53 0 0 1 .719.228l5.317 10.253a.53.53 0 0 1-.228.719.53.53 0 0 1-.719-.228L16.53 1.97a.534.534 0 0 1 .228-.72Zm6.242 12.465-.444 4.573H16.47v-4.573h6.53ZM16 2.986l5.014 9.668c.022.043.047.084.072.124H10.914c.026-.04.05-.08.072-.124l.489-.942h7.134a.469.469 0 0 0 0-.938h-6.648L16 2.986Zm-6.793 8.746 5.317-10.254a.53.53 0 0 1 .72-.227.534.534 0 0 1 .227.718l-5.318 10.254a.53.53 0 0 1-.718.228.53.53 0 0 1-.228-.72Zm-7.171 1.984h6.023l.444 4.573h-5.61l-.857-4.573Zm1.033 5.51h5.525l.444 4.574H3.925l-.857-4.573Zm2.655 9.585c-.497 0-.925-.355-1.016-.844l-.606-3.23h5.026l.395 4.074H5.724Zm9.807 0h-5.066l-.395-4.073h5.461v4.073Zm0-5.01H9.98l-.443-4.574h5.995V23.8Zm0-5.512H9.445L9 13.716h6.53v4.573Zm6.004 10.521h-5.066v-4.072h5.46l-.394 4.073Zm.486-5.01h-5.552v-4.573h5.995l-.443 4.573Zm5.271 4.167c-.091.489-.519.844-1.016.844h-3.8l.396-4.073h5.026l-.606 3.229Zm.782-4.166h-5.111l.443-4.574h5.525l-.857 4.573Zm1.033-5.512h-5.61l.444-4.573h6.023l-.857 4.573Zm1.422-5.51h-6.977a1.479 1.479 0 0 0 .215-1.067h6.762a.534.534 0 0 1 0 1.066Z"/></symbol><symbol id="burger-icon" viewBox="0 0 24 20"><path d="M0 18.7a.5.5 0 0 1 .5-.5h23a.5.5 0 0 1 0 1H.5a.5.5 0 0 1-.5-.5ZM0 7.1a.5.5 0 0 1 .5-.5h23a.5.5 0 0 1 0 1H.5a.5.5 0 0 1-.5-.5ZM0 12.9a.5.5 0 0 1 .5-.5h23a.5.5 0 0 1 0 1H.5a.5.5 0 0 1-.5-.5ZM0 1.3A.5.5 0 0 1 .5.8h23a.5.5 0 0 1 0 1H.5a.5.5 0 0 1-.5-.5Z"/></symbol><symbol id="close"><g fill="none"><g clip-path="url(#a)" fill="#688800"><path d="M20.758.72A16.003 16.003 0 0 0 16 0 15.896 15.896 0 0 0 4.686 4.686 15.896 15.896 0 0 0 0 16c0 3.206.945 6.3 2.733 8.946a16.002 16.002 0 0 0 7.039 5.796.47.47 0 1 0 .366-.865A15.064 15.064 0 0 1 3.51 24.42 14.985 14.985 0 0 1 .94 16c0-4.023 1.567-7.805 4.412-10.65A14.962 14.962 0 0 1 16 .94c1.528 0 3.034.227 4.479.676a.47.47 0 0 0 .279-.897ZM29.44 7.316a16.033 16.033 0 0 0-6.633-5.8.47.47 0 0 0-.4.85c2.55 1.2 4.71 3.089 6.245 5.46A15.004 15.004 0 0 1 31.06 16c0 4.023-1.567 7.805-4.412 10.65A14.962 14.962 0 0 1 16 31.06c-1.367 0-2.722-.183-4.027-.544a.47.47 0 0 0-.25.905c1.386.384 2.825.578 4.277.578 4.274 0 8.292-1.664 11.314-4.686A15.896 15.896 0 0 0 32 16c0-3.094-.885-6.097-2.56-8.684Z"/><path d="M20.592 19.928 16.664 16l3.927-3.928a.47.47 0 1 0-.664-.664L16 15.336l-3.928-3.928a.47.47 0 0 0-.664.664L15.335 16l-3.927 3.928a.47.47 0 0 0 .664.664L16 16.664l3.927 3.928a.468.468 0 0 0 .665 0 .47.47 0 0 0 0-.664Z"/></g></g></symbol><symbol id="instagram" viewBox="0 0 24 24"><g clip-path="url(#a)"><path d="M20.485 3.515A11.921 11.921 0 0 0 12 0a11.921 11.921 0 0 0-8.485 3.515A11.921 11.921 0 0 0 0 12c0 3.205 1.248 6.219 3.515 8.485A11.921 11.921 0 0 0 12 24c3.205 0 6.219-1.248 8.485-3.515A11.922 11.922 0 0 0 24 12c0-3.205-1.248-6.219-3.515-8.485ZM12 23.242C5.801 23.242.758 18.2.758 12 .758 5.801 5.8.758 12 .758 18.199.758 23.242 5.8 23.242 12c0 6.199-5.043 11.242-11.242 11.242Z"/><path d="M16.305 4.547h-8.61a3.15 3.15 0 0 0-3.148 3.148v8.61a3.15 3.15 0 0 0 3.148 3.148h8.61a3.15 3.15 0 0 0 3.148-3.148v-8.61a3.15 3.15 0 0 0-3.148-3.148Zm2.39 11.758a2.392 2.392 0 0 1-2.39 2.39h-8.61a2.392 2.392 0 0 1-2.39-2.39v-8.61a2.392 2.392 0 0 1 2.39-2.39h8.61a2.392 2.392 0 0 1 2.39 2.39v8.61Z"/><path d="M15.91 11.776a3.926 3.926 0 0 0-3.73-3.687 3.92 3.92 0 0 0-4.092 4.094 3.926 3.926 0 0 0 3.69 3.727 3.893 3.893 0 0 0 2.288-.586.375.375 0 0 0 .068-.584l-.005-.005a.377.377 0 0 0-.468-.05 3.138 3.138 0 0 1-1.695.473 3.171 3.171 0 0 1-3.123-3.248 3.161 3.161 0 0 1 3.36-3.061 3.166 3.166 0 0 1 2.944 2.886 3.142 3.142 0 0 1-.357 1.742.377.377 0 0 0 .064.444l.006.006a.374.374 0 0 0 .594-.085c.327-.61.498-1.317.455-2.066ZM16.042 8.463a1.01 1.01 0 1 0 0-2.02 1.01 1.01 0 0 0 0 2.02Z"/></g></symbol><symbol id="phones"><g fill="none"><g clip-path="url(#a)" fill="#688800"><path d="M27.31 4.686A15.891 15.891 0 0 0 15.997 0C11.724 0 7.707 1.664 4.686 4.686A15.897 15.897 0 0 0 0 16c0 2.94.804 5.815 2.326 8.313a.469.469 0 0 0 .8-.487A15.036 15.036 0 0 1 .939 16c0-4.023 1.566-7.806 4.41-10.65A14.96 14.96 0 0 1 15.998.937a14.96 14.96 0 0 1 10.649 4.411A14.965 14.965 0 0 1 31.056 16c0 4.023-1.566 7.806-4.41 10.65a14.96 14.96 0 0 1-10.65 4.413 14.99 14.99 0 0 1-11.794-5.696.469.469 0 0 0-.734.584A15.923 15.923 0 0 0 15.998 32c4.272 0 8.29-1.664 11.311-4.686A15.897 15.897 0 0 0 31.995 16c0-4.274-1.664-8.292-4.686-11.314Z"/><path d="m13.429 13.288 1.608-1.21a.882.882 0 0 0 .345-.815 9.24 9.24 0 0 1-.074-1.297c.013-.927-.689-1.753-1.598-1.88l-1.401-.198c-.95-.134-1.827.12-2.473.715-.647.596-.972 1.452-.916 2.41.084 1.453.373 2.887.856 4.262a15.62 15.62 0 0 0 5.707 7.58 15.553 15.553 0 0 0 3.86 2.002c.367.129.736.193 1.095.193.524 0 1.026-.137 1.472-.408.75-.456 1.238-1.23 1.371-2.18l.194-1.372c.128-.91-.483-1.846-1.362-2.085a9.222 9.222 0 0 1-1.212-.423.91.91 0 0 0-.904.11l-1.596 1.201a.408.408 0 0 1-.474.014 11.856 11.856 0 0 1-2.43-2.187.469.469 0 1 0-.717.604c.763.906 1.645 1.7 2.622 2.36a1.346 1.346 0 0 0 1.563-.042l1.583-1.191c.427.182.87.336 1.319.459.424.115.742.606.68 1.05l-.194 1.372c-.094.665-.424 1.201-.93 1.509-.506.308-1.135.354-1.77.131a14.626 14.626 0 0 1-3.626-1.88 14.689 14.689 0 0 1-5.366-7.128 14.633 14.633 0 0 1-.805-4.006c-.04-.672.179-1.264.615-1.665.436-.402 1.041-.57 1.707-.477l1.401.198c.436.06.798.491.792.939-.006.465.02.934.077 1.395l-1.583 1.191c-.46.347-.65.946-.472 1.491.273.84.636 1.657 1.078 2.425a.47.47 0 0 0 .813-.467 11.844 11.844 0 0 1-1-2.247.409.409 0 0 1 .145-.453Z"/></g></g></symbol><symbol id="telegram" viewBox="0 0 24 24"><g clip-path="url(#a)"><path d="M20.485 3.515A11.921 11.921 0 0 0 12 0a11.921 11.921 0 0 0-8.485 3.515A11.921 11.921 0 0 0 0 12c0 3.205 1.248 6.219 3.515 8.485A11.921 11.921 0 0 0 12 24c3.205 0 6.219-1.248 8.485-3.515A11.922 11.922 0 0 0 24 12c0-3.205-1.248-6.219-3.515-8.485ZM12 23.242C5.801 23.242.758 18.2.758 12 .758 5.801 5.8.758 12 .758 18.199.758 23.242 5.8 23.242 12c0 6.199-5.043 11.242-11.242 11.242Z"/><path d="M18.797 4.624a.379.379 0 0 0-.403-.034L3.742 12.169a.38.38 0 0 0 .004.675l3.833 1.917v3.797c0 .099.034.197.102.27a.38.38 0 0 0 .461.072l4.385-2.436 3.356 1.438a.38.38 0 0 0 .53-.27l.85-4.246a.379.379 0 1 0-.743-.148l-.758 3.788-3.107-1.332a.38.38 0 0 0-.334.017l-3.984 2.213v-3.398a.38.38 0 0 0-.21-.339L4.752 12.5l13.29-6.874-1.153 5.767a.379.379 0 0 0 .743.148L18.94 5a.38.38 0 0 0-.143-.376Z"/><path d="M16.34 7.723a.379.379 0 0 0-.496-.088l-6.569 4.042a.38.38 0 0 0-.18.323v4.042a.379.379 0 0 0 .718.17l1.488-2.977 5.01-5.01a.38.38 0 0 0 .029-.502Zm-5.618 5.02a.38.38 0 0 0-.071.098l-.798 1.596V12.21l3.639-2.24-2.77 2.771Z"/></g></symbol><symbol id="viber" viewBox="0 0 24 24"><g clip-path="url(#a)"><path d="M20.485 3.515A11.921 11.921 0 0 0 12 0a11.921 11.921 0 0 0-8.485 3.515A11.921 11.921 0 0 0 0 12c0 3.205 1.248 6.219 3.515 8.485A11.921 11.921 0 0 0 12 24c3.205 0 6.219-1.248 8.485-3.515A11.921 11.921 0 0 0 24 12c0-3.205-1.248-6.219-3.515-8.485ZM12 23.242C5.801 23.242.758 18.2.758 12 .758 5.801 5.8.758 12 .758 18.199.758 23.242 5.8 23.242 12c0 6.199-5.043 11.242-11.242 11.242Z"/><path d="m19.089 16.997-.41-2.156a.421.421 0 0 0-.337-.332l-3.227-.627a.437.437 0 0 0-.386.114l-1.325 1.286c-2.233-.967-3.467-2.167-4.553-4.427l1.32-1.282a.407.407 0 0 0 .117-.375l-.645-3.131a.422.422 0 0 0-.342-.327L7.08 5.342a.438.438 0 0 0-.173.003 3.184 3.184 0 0 0-1.534.823c-.731.71-1.01 1.746-.808 2.998.093.57.23 1.16.409 1.755a.43.43 0 0 0 .53.283.413.413 0 0 0 .291-.515 13.023 13.023 0 0 1-.384-1.652c-.161-.993.03-1.76.567-2.282a2.32 2.32 0 0 1 1.037-.58l1.847.33.544 2.638-1.37 1.329a.406.406 0 0 0-.087.462c1.244 2.705 2.704 4.12 5.386 5.223.16.066.346.031.47-.088l1.368-1.329 2.718.528.34 1.792a2.22 2.22 0 0 1-.597 1.007c-.538.521-1.329.706-2.352.55-2.045-.312-4.881-1.276-6.71-3.043l-.026-.025c-.84-.82-1.59-1.95-2.167-3.268a.433.433 0 0 0-.561-.22.41.41 0 0 0-.227.544c.62 1.415 1.432 2.636 2.35 3.532l.027.025c1.974 1.908 5.004 2.943 7.181 3.275.274.042.537.063.789.063.938 0 1.724-.287 2.3-.846a3.04 3.04 0 0 0 .848-1.49.4.4 0 0 0 .004-.167ZM13.14 8.042a.422.422 0 0 0-.427.416c0 .229.191.415.427.415 1.023 0 1.854.807 1.854 1.799 0 .226.195.415.428.415a.426.426 0 0 0 .428-.415c0-1.45-1.216-2.63-2.71-2.63Z"/><path d="M13.14 6.271c-.167 0-.337.01-.503.027a.418.418 0 0 0-.378.458.425.425 0 0 0 .472.368 3.85 3.85 0 0 1 .41-.022c2.028 0 3.678 1.601 3.678 3.57 0 .133-.007.266-.022.397a.418.418 0 0 0 .378.459.43.43 0 0 0 .472-.367c.019-.162.028-.326.028-.489 0-2.426-2.034-4.4-4.535-4.4Z"/><path d="M13.14 4.5c-.162 0-.326.006-.488.018a.42.42 0 0 0-.394.445c.018.229.222.4.459.383.14-.01.283-.016.423-.016 3.035 0 5.505 2.397 5.505 5.342 0 .417-.05.832-.148 1.233a.418.418 0 0 0 .31.498.432.432 0 0 0 .523-.307c.113-.464.17-.943.17-1.424 0-3.403-2.853-6.172-6.36-6.172Z"/></g></symbol></svg>