<svg xmlns="http://www.w3.org/2000/svg" xmlns:xlink="http://www.w3.org/1999/xlink"><symbol id="insta" viewBox="0 0 38 38"><path fill-rule="evenodd" clip-rule="evenodd" d="M11.442.777C13.397.687 14.02.667 19 .667s5.603.022 7.557.11c1.953.088 3.286.4 4.453.852a9.02 9.02 0 0 1 3.247 2.116A8.954 8.954 0 0 1 36.37 6.99c.453 1.167.763 2.5.853 4.45.09 1.959.11 2.582.11 7.56 0 4.98-.021 5.604-.11 7.559-.088 1.95-.4 3.283-.853 4.45a8.994 8.994 0 0 1-2.113 3.248 8.99 8.99 0 0 1-3.247 2.113c-1.167.454-2.5.764-4.45.854-1.957.09-2.58.11-7.56.11-4.98 0-5.603-.022-7.558-.11-1.95-.089-3.284-.4-4.45-.854a8.994 8.994 0 0 1-3.249-2.113 8.987 8.987 0 0 1-2.115-3.247c-.451-1.166-.761-2.5-.851-4.45-.09-1.958-.11-2.581-.11-7.56 0-4.98.021-5.603.11-7.556.088-1.954.4-3.287.851-4.454a8.993 8.993 0 0 1 2.117-3.246A8.987 8.987 0 0 1 6.99 1.629c1.167-.452 2.5-.762 4.45-.852h.002Zm14.966 3.3C24.475 3.989 23.895 3.97 19 3.97c-4.895 0-5.475.019-7.408.107-1.789.082-2.759.38-3.405.632-.855.333-1.467.728-2.109 1.37a5.687 5.687 0 0 0-1.37 2.108c-.251.647-.55 1.617-.631 3.405-.089 1.933-.107 2.513-.107 7.408 0 4.895.018 5.475.107 7.409.081 1.788.38 2.758.631 3.405a5.691 5.691 0 0 0 1.37 2.108 5.691 5.691 0 0 0 2.109 1.37c.646.252 1.616.55 3.405.632 1.933.088 2.511.106 7.408.106s5.475-.018 7.408-.106c1.789-.082 2.759-.38 3.405-.632.855-.333 1.467-.728 2.109-1.37a5.69 5.69 0 0 0 1.37-2.108c.251-.647.55-1.617.631-3.405.089-1.934.107-2.514.107-7.409s-.018-5.475-.107-7.408c-.081-1.788-.38-2.758-.631-3.405-.334-.855-.729-1.467-1.37-2.108a5.688 5.688 0 0 0-2.109-1.37c-.646-.252-1.616-.55-3.405-.632Zm-9.75 20.575a6.116 6.116 0 0 0 6.667-9.977 6.117 6.117 0 1 0-6.667 9.977Zm-4.321-12.315A9.422 9.422 0 0 1 28.423 19a9.423 9.423 0 1 1-16.086-6.663Zm18.176-1.357a2.228 2.228 0 1 0-3.058-3.242 2.228 2.228 0 0 0 3.058 3.242Z"/></symbol><symbol id="logo" viewBox="0 0 200 25"><g fill="none"><path d="M7.542 14.083s4.475 0 4.475 4.82-4.475 4.82-4.475 4.82H1v-9.64m6.542 0s2.754-1.033 2.754-5.164c0-4.132-5.165-3.788-5.165-3.788H1v8.952m6.542 0H1m61.284-9.984v19.624h9.64m13.771.689 9.64-19.28 8.608 19.28M88.106 1l14.115 2.066m18.936 21.69V5.476l15.494 16.526V4.099m34.773 2.754s-2.973-2.213-5.853-2.41a9.644 9.644 0 0 0-10.329 9.64c0 5.617 4.713 9.394 10.329 9.296 2.771-.048 5.853-1.377 5.853-1.377M200 23.723h-10.329V13.395m9.64-8.264h-9.64v8.264m7.919 0h-7.919M27.511 24.412l2.877-6.197m14.337 6.197-2.656-6.197m-11.681 0L36.462 5.13l5.607 13.084m-11.681 0h11.681"/></g></symbol><symbol id="vk" viewBox="0 0 34 20"><path d="M32.965 1.425c.233-.775 0-1.343-1.103-1.343h-3.655c-.93 0-1.355.492-1.589 1.032 0 0-1.858 4.531-4.491 7.47-.85.855-1.239 1.125-1.702 1.125-.232 0-.568-.27-.568-1.045V1.425c0-.93-.269-1.343-1.044-1.343H13.07c-.58 0-.93.43-.93.84 0 .88 1.317 1.083 1.452 3.563v5.38c0 1.179-.212 1.394-.679 1.394-1.238 0-4.251-4.549-6.04-9.755C6.525.492 6.173.084 5.24.084H1.587C.542.084.333.575.333 1.115c0 .97 1.239 5.77 5.769 12.119 3.02 4.335 7.271 6.685 11.145 6.685 2.321 0 2.608-.522 2.608-1.422V15.22c0-1.043.222-1.253.957-1.253.54 0 1.47.273 3.638 2.362 2.477 2.476 2.887 3.588 4.278 3.588h3.654c1.043 0 1.565-.522 1.265-1.552-.329-1.025-1.512-2.516-3.082-4.281-.853-1.007-2.128-2.09-2.517-2.632-.541-.698-.385-1.007 0-1.627.002.002 4.454-6.268 4.917-8.4Z"/></symbol><symbol id="youtube" viewBox="0 0 40 30"><path d="M20.128.997h.222c2.055.008 12.468.083 15.275.838a5.025 5.025 0 0 1 3.538 3.55c.252.95.43 2.207.55 3.505l.024.26.055.65.02.26c.163 2.285.183 4.425.186 4.892v.188c-.003.485-.026 2.77-.206 5.15l-.02.262-.022.26c-.125 1.43-.31 2.85-.587 3.895a5.017 5.017 0 0 1-3.538 3.55c-2.9.78-13.922.835-15.45.838h-.355c-.773 0-3.968-.015-7.318-.13l-.425-.015-.217-.01-.428-.018-.427-.017c-2.775-.123-5.418-.32-6.635-.65a5.018 5.018 0 0 1-3.538-3.548C.555 23.665.37 22.242.246 20.812l-.02-.262-.02-.26A78.501 78.501 0 0 1 0 15.2v-.308c.005-.537.025-2.395.16-4.445l.017-.257.008-.13.02-.26.055-.65.025-.26c.12-1.298.298-2.558.55-3.505a5.018 5.018 0 0 1 3.537-3.55c1.218-.325 3.86-.525 6.636-.65l.425-.018.43-.015.215-.007.427-.018c2.38-.076 4.76-.119 7.14-.127h.483V.997ZM16 9.022v12.045l10.392-6.02L16 9.022Z"/></symbol></svg>