<svg xmlns="http://www.w3.org/2000/svg" xmlns:xlink="http://www.w3.org/1999/xlink"><defs><clipPath id="a"><path fill="#fff" d="M0 0h32v32H0z"/></clipPath><clipPath id="a"><path fill="#fff" d="M0 0h24v24H0z"/></clipPath><clipPath id="a"><path fill="#fff" d="M0 0h24v24H0z"/></clipPath><clipPath id="a"><path fill="#fff" d="M0 0h24v24H0z"/></clipPath></defs><symbol id="basket"><g fill="none"><path d="M38.162 14.718H29.19l-6.306-12.16a1.827 1.827 0 0 0-1.077-.906A1.826 1.826 0 0 0 20 2.06a1.832 1.832 0 0 0-1.808-.408c-.468.149-.85.47-1.077.906l-6.647 12.817a1.826 1.826 0 0 0 .091 1.848H1.84a.667.667 0 0 1 0-1.333h6.68a.586.586 0 1 0 0-1.172h-6.68A1.84 1.84 0 0 0 0 16.556c0 .84.567 1.55 1.34 1.769l3.393 18.1a2.466 2.466 0 0 0 2.422 2.01h25.69a2.466 2.466 0 0 0 2.422-2.01l3.394-18.1A1.841 1.841 0 0 0 40 16.556a1.84 1.84 0 0 0-1.838-1.838ZM20.946 2.813a.662.662 0 0 1 .508-.044c.17.054.308.171.39.329l6.647 12.817a.662.662 0 0 1-.284.898.662.662 0 0 1-.509.044.662.662 0 0 1-.39-.328L20.661 3.712a.667.667 0 0 1 .285-.899Zm7.802 15.582-.554 5.717h-7.608v-5.717h8.162ZM20 4.983l6.268 12.085c.027.053.058.105.09.155H13.642c.032-.05.063-.102.09-.155l.611-1.178h8.919a.586.586 0 1 0 0-1.172h-8.31L20 4.983Zm-8.492 10.932 6.648-12.817a.662.662 0 0 1 .592-.36.667.667 0 0 1 .591.974l-6.647 12.816a.662.662 0 0 1-.39.329.662.662 0 0 1-.509-.044.662.662 0 0 1-.328-.39.662.662 0 0 1 .043-.508Zm-8.964 2.48h7.53l.555 5.717H3.616l-1.072-5.717Zm1.292 6.888h6.906L11.297 31H4.908l-1.072-5.717Zm3.32 11.98a1.293 1.293 0 0 1-1.271-1.055l-.757-4.036h6.283l.493 5.091H7.155Zm12.258 0h-6.333l-.493-5.09h6.826v5.09Zm0-6.263h-6.94l-.554-5.717h7.494V31Zm0-6.888h-7.608l-.554-5.717h8.162v5.717Zm7.505 13.151h-6.333v-5.09h6.826l-.493 5.09ZM27.526 31h-6.94v-5.716h7.494L27.526 31Zm6.59 5.208a1.293 1.293 0 0 1-1.271 1.055h-4.75l.495-5.09h6.282l-.757 4.035ZM35.091 31h-6.389l.555-5.716h6.906L35.092 31Zm1.292-6.889H29.37l.555-5.716h7.53l-1.072 5.716Zm1.778-6.888H29.44a1.844 1.844 0 0 0 .268-1.333h8.453a.667.667 0 0 1 0 1.333Z" fill="#688800"/></g></symbol><symbol id="close"><g fill="none"><g clip-path="url(#a)" fill="#688800"><path d="M20.758.72A16.003 16.003 0 0 0 16 0 15.896 15.896 0 0 0 4.686 4.686 15.896 15.896 0 0 0 0 16c0 3.206.945 6.3 2.733 8.946a16.002 16.002 0 0 0 7.039 5.796.47.47 0 1 0 .366-.865A15.064 15.064 0 0 1 3.51 24.42 14.985 14.985 0 0 1 .94 16c0-4.023 1.567-7.805 4.412-10.65A14.962 14.962 0 0 1 16 .94c1.528 0 3.034.227 4.479.676a.47.47 0 0 0 .279-.897ZM29.44 7.316a16.033 16.033 0 0 0-6.633-5.8.47.47 0 0 0-.4.85c2.55 1.2 4.71 3.089 6.245 5.46A15.004 15.004 0 0 1 31.06 16c0 4.023-1.567 7.805-4.412 10.65A14.962 14.962 0 0 1 16 31.06c-1.367 0-2.722-.183-4.027-.544a.47.47 0 0 0-.25.905c1.386.384 2.825.578 4.277.578 4.274 0 8.292-1.664 11.314-4.686A15.896 15.896 0 0 0 32 16c0-3.094-.885-6.097-2.56-8.684Z"/><path d="M20.592 19.928 16.664 16l3.927-3.928a.47.47 0 1 0-.664-.664L16 15.336l-3.928-3.928a.47.47 0 0 0-.664.664L15.335 16l-3.927 3.928a.47.47 0 0 0 .664.664L16 16.664l3.927 3.928a.468.468 0 0 0 .665 0 .47.47 0 0 0 0-.664Z"/></g></g></symbol><symbol id="instagram"><g fill="none"><g clip-path="url(#a)" fill="#fff"><path d="M20.485 3.515A11.921 11.921 0 0 0 12 0a11.921 11.921 0 0 0-8.485 3.515A11.921 11.921 0 0 0 0 12c0 3.205 1.248 6.219 3.515 8.485A11.921 11.921 0 0 0 12 24c3.205 0 6.219-1.248 8.485-3.515A11.922 11.922 0 0 0 24 12c0-3.205-1.248-6.219-3.515-8.485ZM12 23.242C5.801 23.242.758 18.2.758 12 .758 5.801 5.8.758 12 .758 18.199.758 23.242 5.8 23.242 12c0 6.199-5.043 11.242-11.242 11.242Z"/><path d="M16.305 4.547h-8.61a3.15 3.15 0 0 0-3.148 3.148v8.61a3.15 3.15 0 0 0 3.148 3.148h8.61a3.15 3.15 0 0 0 3.148-3.148v-8.61a3.15 3.15 0 0 0-3.148-3.148Zm2.39 11.758a2.392 2.392 0 0 1-2.39 2.39h-8.61a2.392 2.392 0 0 1-2.39-2.39v-8.61a2.392 2.392 0 0 1 2.39-2.39h8.61a2.392 2.392 0 0 1 2.39 2.39v8.61Z"/><path d="M15.91 11.776a3.926 3.926 0 0 0-3.73-3.687 3.92 3.92 0 0 0-4.092 4.094 3.926 3.926 0 0 0 3.69 3.727 3.893 3.893 0 0 0 2.288-.586.375.375 0 0 0 .068-.584l-.005-.005a.377.377 0 0 0-.468-.05 3.138 3.138 0 0 1-1.695.473 3.171 3.171 0 0 1-3.123-3.248 3.161 3.161 0 0 1 3.36-3.061 3.166 3.166 0 0 1 2.944 2.886 3.142 3.142 0 0 1-.357 1.742.377.377 0 0 0 .064.444l.006.006a.374.374 0 0 0 .594-.085c.327-.61.498-1.317.455-2.066ZM16.042 8.463a1.01 1.01 0 1 0 0-2.02 1.01 1.01 0 0 0 0 2.02Z"/></g></g></symbol><symbol id="telegram"><g fill="none"><g clip-path="url(#a)" fill="#fff"><path d="M20.485 3.515A11.921 11.921 0 0 0 12 0a11.921 11.921 0 0 0-8.485 3.515A11.921 11.921 0 0 0 0 12c0 3.205 1.248 6.219 3.515 8.485A11.921 11.921 0 0 0 12 24c3.205 0 6.219-1.248 8.485-3.515A11.922 11.922 0 0 0 24 12c0-3.205-1.248-6.219-3.515-8.485ZM12 23.242C5.801 23.242.758 18.2.758 12 .758 5.801 5.8.758 12 .758 18.199.758 23.242 5.8 23.242 12c0 6.199-5.043 11.242-11.242 11.242Z"/><path d="M18.797 4.624a.379.379 0 0 0-.403-.034L3.742 12.169a.38.38 0 0 0 .004.675l3.833 1.917v3.797c0 .099.034.197.102.27a.38.38 0 0 0 .461.072l4.385-2.436 3.356 1.438a.38.38 0 0 0 .53-.27l.85-4.246a.379.379 0 1 0-.743-.148l-.758 3.788-3.107-1.332a.38.38 0 0 0-.334.017l-3.984 2.213v-3.398a.38.38 0 0 0-.21-.339L4.752 12.5l13.29-6.874-1.153 5.767a.379.379 0 0 0 .743.148L18.94 5a.38.38 0 0 0-.143-.376Z"/><path d="M16.34 7.723a.379.379 0 0 0-.496-.088l-6.569 4.042a.38.38 0 0 0-.18.323v4.042a.379.379 0 0 0 .718.17l1.488-2.977 5.01-5.01a.38.38 0 0 0 .029-.502Zm-5.618 5.02a.38.38 0 0 0-.071.098l-.798 1.596V12.21l3.639-2.24-2.77 2.771Z"/></g></g></symbol><symbol id="viber"><g fill="none"><g clip-path="url(#a)" fill="#fff"><path d="M20.485 3.515A11.921 11.921 0 0 0 12 0a11.921 11.921 0 0 0-8.485 3.515A11.921 11.921 0 0 0 0 12c0 3.205 1.248 6.219 3.515 8.485A11.921 11.921 0 0 0 12 24c3.205 0 6.219-1.248 8.485-3.515A11.921 11.921 0 0 0 24 12c0-3.205-1.248-6.219-3.515-8.485ZM12 23.242C5.801 23.242.758 18.2.758 12 .758 5.801 5.8.758 12 .758 18.199.758 23.242 5.8 23.242 12c0 6.199-5.043 11.242-11.242 11.242Z"/><path d="m19.089 16.997-.41-2.156a.421.421 0 0 0-.337-.332l-3.227-.627a.437.437 0 0 0-.386.114l-1.325 1.286c-2.233-.967-3.467-2.167-4.553-4.427l1.32-1.282a.407.407 0 0 0 .117-.375l-.645-3.131a.422.422 0 0 0-.342-.327L7.08 5.342a.438.438 0 0 0-.173.003 3.184 3.184 0 0 0-1.534.823c-.731.71-1.01 1.746-.808 2.998.093.57.23 1.16.409 1.755a.43.43 0 0 0 .53.283.413.413 0 0 0 .291-.515 13.023 13.023 0 0 1-.384-1.652c-.161-.993.03-1.76.567-2.282a2.32 2.32 0 0 1 1.037-.58l1.847.33.544 2.638-1.37 1.329a.406.406 0 0 0-.087.462c1.244 2.705 2.704 4.12 5.386 5.223.16.066.346.031.47-.088l1.368-1.329 2.718.528.34 1.792a2.22 2.22 0 0 1-.597 1.007c-.538.521-1.329.706-2.352.55-2.045-.312-4.881-1.276-6.71-3.043l-.026-.025c-.84-.82-1.59-1.95-2.167-3.268a.433.433 0 0 0-.561-.22.41.41 0 0 0-.227.544c.62 1.415 1.432 2.636 2.35 3.532l.027.025c1.974 1.908 5.004 2.943 7.181 3.275.274.042.537.063.789.063.938 0 1.724-.287 2.3-.846a3.04 3.04 0 0 0 .848-1.49.4.4 0 0 0 .004-.167ZM13.14 8.042a.422.422 0 0 0-.427.416c0 .229.191.415.427.415 1.023 0 1.854.807 1.854 1.799 0 .226.195.415.428.415a.426.426 0 0 0 .428-.415c0-1.45-1.216-2.63-2.71-2.63Z"/><path d="M13.14 6.271c-.167 0-.337.01-.503.027a.418.418 0 0 0-.378.458.425.425 0 0 0 .472.368 3.85 3.85 0 0 1 .41-.022c2.028 0 3.678 1.601 3.678 3.57 0 .133-.007.266-.022.397a.418.418 0 0 0 .378.459.43.43 0 0 0 .472-.367c.019-.162.028-.326.028-.489 0-2.426-2.034-4.4-4.535-4.4Z"/><path d="M13.14 4.5c-.162 0-.326.006-.488.018a.42.42 0 0 0-.394.445c.018.229.222.4.459.383.14-.01.283-.016.423-.016 3.035 0 5.505 2.397 5.505 5.342 0 .417-.05.832-.148 1.233a.418.418 0 0 0 .31.498.432.432 0 0 0 .523-.307c.113-.464.17-.943.17-1.424 0-3.403-2.853-6.172-6.36-6.172Z"/></g></g></symbol></svg>